# xmcd
#
# Track frame offsets:
#	150
#	14605
#	30920
#	47035
#	66700
#	82582
#	98650
#	112960
#	125502
#	141187
#	156185
#	170940
#	185632
#	204284
#
# Disc length: 2941 seconds
#
# Revision: 1
# Processed by: cddbd v1.5.2PL0 Copyright (c) Steve Scherf et al.
# Submitted via: audiograbber 1.83.01
#
DISCID=bc0b7b0e
DTITLE=Taylor Hicks - Taylor Hicks
DYEAR=2006
DGENRE=Country
TTITLE0=The Runaround
TTITLE1=Dream Myself Awake
TTITLE2=Heaven Knows
TTITLE3=Gonna Move
TTITLE4=Wherever I Lay My Hat (That's My Home)
TTITLE5=Give Me Tonight
TTITLE6=Just To Feel That Way
TTITLE7=The Maze
TTITLE8=Places I've Been
TTITLE9=Soul Thing
TTITLE10=The Deal
TTITLE11=The Right Place
TTITLE12=Do I Make You Proud?
TTITLE13=Takin' It To The Streets
EXTD=
EXTT0=
EXTT1=
EXTT2=
EXTT3=
EXTT4=
EXTT5=
EXTT6=
EXTT7=
EXTT8=
EXTT9=
EXTT10=
EXTT11=
EXTT12=
EXTT13=
PLAYORDER=
